<svg version="1.1" id="Layer_1" xmlns="http://www.w3.org/2000/svg" xmlns:xlink="http://www.w3.org/1999/xlink" x="0px" y="0px"
	 width="100%" viewBox="0 0 1200 1237" enable-background="new 0 0 1200 1237" xml:space="preserve">
<path fill="#000000" opacity="1.000000" stroke="none" 
	d="
M1201.000000,332.000000 
	C1201.000000,634.333313 1201.000000,936.166687 1201.000000,1238.000000 
	C801.000000,1238.000000 401.000000,1238.000000 1.000000,1238.000000 
	C1.000000,825.666687 1.000000,413.333344 1.000000,1.000000 
	C401.000000,1.000000 801.000000,1.000000 1201.000000,1.000000 
	C1201.000000,111.166664 1201.000000,221.333328 1201.000000,332.000000 
M1013.945251,62.603664 
	C979.916016,47.896545 944.314575,39.496437 907.487061,35.919651 
	C879.536072,33.204975 851.604553,33.356892 823.652771,35.896618 
	C787.909729,39.144276 752.867249,45.778229 718.746094,57.062698 
	C716.996521,57.641296 714.843628,57.747810 713.049683,57.333298 
	C682.574158,50.291485 651.706177,46.755447 620.436829,47.103905 
	C570.997437,47.654835 524.594116,58.962383 482.769409,86.373489 
	C481.314178,87.327248 478.655304,87.478249 476.956360,86.876663 
	C421.158875,67.118866 363.972198,53.902058 304.751709,50.485214 
	C269.835449,48.470654 235.163147,50.377148 201.113708,59.074608 
	C134.433060,76.107269 86.331337,115.210556 59.408714,179.118118 
	C43.417282,217.077774 37.818180,257.126373 36.120438,297.953613 
	C34.454468,338.016754 39.853264,377.386017 47.265842,416.557434 
	C62.765675,498.465729 82.681908,579.261902 109.043434,658.395325 
	C126.132370,709.693726 145.483841,760.054871 173.081833,806.807556 
	C186.771240,829.998291 202.446533,851.617004 223.962158,868.453918 
	C253.902283,891.883240 288.602081,892.379395 318.462036,868.824402 
	C326.638550,862.374390 333.965546,854.679810 340.919586,846.876526 
	C371.620361,812.426758 402.075073,777.757263 432.506439,743.068604 
	C435.024994,740.197693 436.825378,739.788330 440.352722,741.603638 
	C452.966827,748.095154 466.288696,752.784485 480.334076,755.095276 
	C488.293427,756.404785 496.316620,757.326416 504.763794,758.484802 
	C504.050293,759.787109 503.651764,760.850586 502.977203,761.693054 
	C496.940125,769.232788 490.860321,776.738464 484.781158,784.244446 
	C479.201141,791.134033 472.372894,796.568481 463.869232,799.001404 
	C447.597137,803.657043 431.178558,807.813660 414.766693,811.963379 
	C401.359283,815.353455 387.948944,818.704712 376.600525,827.134583 
	C360.888123,838.806091 359.012848,857.236267 371.990173,871.880188 
	C378.980377,879.768188 387.917816,884.895264 397.433289,889.058228 
	C417.219910,897.714661 438.202759,901.047546 459.538910,902.409851 
	C501.993927,905.120728 540.702026,894.988708 574.407837,868.198608 
	C576.796387,866.300232 579.159729,864.370239 581.999023,862.080566 
	C581.999023,864.327759 582.002625,865.807800 581.998535,867.287842 
	C581.817810,932.454529 582.479553,997.589478 588.999512,1062.517578 
	C591.490967,1087.328369 596.609375,1111.277588 608.022583,1133.845093 
	C631.701233,1180.664917 668.584412,1206.079224 721.760376,1205.606445 
	C748.147034,1205.371948 773.487854,1199.052612 798.274414,1190.446899 
	C817.276062,1183.849731 834.897095,1174.686157 850.162170,1161.370483 
	C872.697815,1141.712280 886.183411,1116.457886 892.766174,1087.890747 
	C898.469971,1063.137573 902.626770,1037.958496 906.123901,1012.781006 
	C912.627625,965.957336 918.161194,918.998779 924.078979,872.093933 
	C925.089783,864.081848 926.003052,856.057495 926.886169,848.667969 
	C936.815613,850.172119 946.123352,852.055969 955.524780,852.917847 
	C984.292542,855.555237 1012.712646,852.401428 1040.951660,846.971191 
	C1079.597534,839.539673 1113.427490,822.271606 1143.140991,796.733948 
	C1151.383057,789.650208 1158.757080,781.711670 1163.275513,771.587646 
	C1170.849731,754.616760 1162.807373,737.854919 1145.016479,734.336914 
	C1139.548584,733.255737 1133.663452,732.931213 1128.156982,733.666260 
	C1114.316650,735.513489 1100.609131,738.330994 1086.801514,740.453430 
	C1063.363892,744.056091 1039.834473,746.221191 1016.156433,742.961182 
	C1006.760986,741.667603 997.573425,739.535339 989.371216,733.791138 
	C990.586792,731.876587 991.680908,730.247803 992.681335,728.563416 
	C1007.365479,703.839355 1022.967041,679.606812 1036.550049,654.291382 
	C1094.051270,547.123535 1137.304077,434.847260 1155.466064,313.914459 
	C1160.502563,280.378784 1162.576294,246.635849 1157.925659,212.838013 
	C1155.248657,193.383484 1150.240112,174.579453 1137.865112,158.751114 
	C1104.837036,116.506233 1064.010986,84.196579 1013.945251,62.603664 
z"/>
<path fill="#FDFEFE" opacity="1.000000" stroke="none" 
	d="
M1014.295532,62.757439 
	C1064.010986,84.196579 1104.837036,116.506233 1137.865112,158.751114 
	C1150.240112,174.579453 1155.248657,193.383484 1157.925659,212.838013 
	C1162.576294,246.635849 1160.502563,280.378784 1155.466064,313.914459 
	C1137.304077,434.847260 1094.051270,547.123535 1036.550049,654.291382 
	C1022.967041,679.606812 1007.365479,703.839355 992.681335,728.563416 
	C991.680908,730.247803 990.586792,731.876587 989.371216,733.791138 
	C997.573425,739.535339 1006.760986,741.667603 1016.156433,742.961182 
	C1039.834473,746.221191 1063.363892,744.056091 1086.801514,740.453430 
	C1100.609131,738.330994 1114.316650,735.513489 1128.156982,733.666260 
	C1133.663452,732.931213 1139.548584,733.255737 1145.016479,734.336914 
	C1162.807373,737.854919 1170.849731,754.616760 1163.275513,771.587646 
	C1158.757080,781.711670 1151.383057,789.650208 1143.140991,796.733948 
	C1113.427490,822.271606 1079.597534,839.539673 1040.951660,846.971191 
	C1012.712646,852.401428 984.292542,855.555237 955.524780,852.917847 
	C946.123352,852.055969 936.815613,850.172119 926.886169,848.667969 
	C926.003052,856.057495 925.089783,864.081848 924.078979,872.093933 
	C918.161194,918.998779 912.627625,965.957336 906.123901,1012.781006 
	C902.626770,1037.958496 898.469971,1063.137573 892.766174,1087.890747 
	C886.183411,1116.457886 872.697815,1141.712280 850.162170,1161.370483 
	C834.897095,1174.686157 817.276062,1183.849731 798.274414,1190.446899 
	C773.487854,1199.052612 748.147034,1205.371948 721.760376,1205.606445 
	C668.584412,1206.079224 631.701233,1180.664917 608.022583,1133.845093 
	C596.609375,1111.277588 591.490967,1087.328369 588.999512,1062.517578 
	C582.479553,997.589478 581.817810,932.454529 581.998535,867.287842 
	C582.002625,865.807800 581.999023,864.327759 581.999023,862.080566 
	C579.159729,864.370239 576.796387,866.300232 574.407837,868.198608 
	C540.702026,894.988708 501.993927,905.120728 459.538910,902.409851 
	C438.202759,901.047546 417.219910,897.714661 397.433289,889.058228 
	C387.917816,884.895264 378.980377,879.768188 371.990173,871.880188 
	C359.012848,857.236267 360.888123,838.806091 376.600525,827.134583 
	C387.948944,818.704712 401.359283,815.353455 414.766693,811.963379 
	C431.178558,807.813660 447.597137,803.657043 463.869232,799.001404 
	C472.372894,796.568481 479.201141,791.134033 484.781158,784.244446 
	C490.860321,776.738464 496.940125,769.232788 502.977203,761.693054 
	C503.651764,760.850586 504.050293,759.787109 504.763794,758.484802 
	C496.316620,757.326416 488.293427,756.404785 480.334076,755.095276 
	C466.288696,752.784485 452.966827,748.095154 440.352722,741.603638 
	C436.825378,739.788330 435.024994,740.197693 432.506439,743.068604 
	C402.075073,777.757263 371.620361,812.426758 340.919586,846.876526 
	C333.965546,854.679810 326.638550,862.374390 318.462036,868.824402 
	C288.602081,892.379395 253.902283,891.883240 223.962158,868.453918 
	C202.446533,851.617004 186.771240,829.998291 173.081833,806.807556 
	C145.483841,760.054871 126.132370,709.693726 109.043434,658.395325 
	C82.681908,579.261902 62.765675,498.465729 47.265842,416.557434 
	C39.853264,377.386017 34.454468,338.016754 36.120438,297.953613 
	C37.818180,257.126373 43.417282,217.077774 59.408714,179.118118 
	C86.331337,115.210556 134.433060,76.107269 201.113708,59.074608 
	C235.163147,50.377148 269.835449,48.470654 304.751709,50.485214 
	C363.972198,53.902058 421.158875,67.118866 476.956360,86.876663 
	C478.655304,87.478249 481.314178,87.327248 482.769409,86.373489 
	C524.594116,58.962383 570.997437,47.654835 620.436829,47.103905 
	C651.706177,46.755447 682.574158,50.291485 713.049683,57.333298 
	C714.843628,57.747810 716.996521,57.641296 718.746094,57.062698 
	C752.867249,45.778229 787.909729,39.144276 823.652771,35.896618 
	C851.604553,33.356892 879.536072,33.204975 907.487061,35.919651 
	C944.314575,39.496437 979.916016,47.896545 1014.295532,62.757439 
M801.768066,131.712082 
	C736.688721,91.475105 665.928345,76.033417 590.070618,83.945908 
	C552.846130,87.828682 519.061157,101.105927 489.496735,124.337357 
	C457.111694,149.785233 435.154510,182.981064 418.996796,220.364746 
	C403.434906,256.369904 394.459808,294.152313 389.100311,332.870789 
	C387.912231,341.453949 387.190186,350.101562 386.170898,359.479889 
	C391.421326,356.816071 395.651459,354.538208 399.989960,352.489807 
	C432.081055,337.338074 465.281433,326.728271 501.339142,327.885925 
	C545.115540,329.291412 576.786987,354.722595 586.996582,397.305511 
	C594.616272,429.086578 599.360229,461.324860 601.328552,493.990417 
	C604.215393,541.897827 598.210205,588.309326 579.556274,632.831116 
	C569.727478,656.289551 560.129700,679.848694 550.772095,703.498596 
	C547.277771,712.330261 544.763245,721.549561 541.840393,730.474792 
	C547.973145,730.474792 553.361572,729.788940 558.519592,730.588928 
	C586.666016,734.954346 604.178040,751.963318 613.849670,778.034485 
	C618.801575,791.383057 617.512085,805.145569 617.320007,818.977600 
	C616.225037,897.795471 615.557312,976.619080 623.066589,1055.229492 
	C625.146240,1077.000610 628.905701,1098.202271 638.872803,1118.215088 
	C657.155273,1154.924194 685.718628,1173.460693 727.053955,1170.825928 
	C747.947327,1169.494019 768.303650,1164.924561 787.701172,1157.210815 
	C799.205444,1152.635986 810.623474,1147.113159 820.843994,1140.191284 
	C843.017151,1125.174072 854.746094,1102.481323 859.748718,1077.120483 
	C866.632874,1042.220825 871.770508,1006.953979 876.854553,971.728760 
	C881.348206,940.594421 884.946533,909.324951 888.555664,878.070801 
	C891.114319,855.913330 893.119019,833.689941 895.194458,811.479431 
	C896.014099,802.707886 895.724854,793.796814 897.030701,785.113159 
	C901.111450,757.977356 915.873657,739.484314 942.434204,731.061279 
	C943.766602,730.638794 945.057556,730.085449 946.869751,729.404358 
	C944.308105,726.067810 942.154846,723.133545 939.868652,720.306641 
	C926.333130,703.570068 913.832397,686.193970 904.326355,666.739075 
	C896.736572,651.205933 888.787720,635.829407 880.458374,620.680176 
	C857.994141,579.822632 836.377380,538.570557 821.539246,494.196930 
	C811.883484,465.321381 804.952515,435.987518 807.844299,405.064026 
	C811.299805,368.112549 834.045837,339.902496 869.635193,328.996155 
	C893.276733,321.751221 917.442017,320.955048 941.847168,322.577667 
	C945.551697,322.823975 949.258667,323.032196 954.332581,323.341400 
	C922.650879,243.310776 874.185913,178.468948 801.768066,131.712082 
M139.940704,641.527466 
	C146.964798,661.259094 153.567673,681.153137 161.103775,700.687256 
	C175.257614,737.374878 191.269211,773.211975 213.536850,805.863525 
	C223.906052,821.068115 235.388840,835.316833 251.326569,845.224976 
	C265.552582,854.069092 279.934692,854.156860 293.328827,844.187256 
	C301.263977,838.280945 308.491516,831.172607 315.080505,823.754944 
	C336.985382,799.095703 358.389984,773.992859 380.128052,749.184204 
	C388.884247,739.191101 398.007324,729.519531 407.029846,719.628845 
	C390.460815,705.273804 377.219940,688.707886 367.022614,669.731689 
	C346.430634,631.412170 342.105316,590.715088 348.256592,548.122375 
	C352.907867,515.915588 353.732758,483.412140 352.505981,450.889221 
	C351.777740,431.581635 350.124176,412.279358 350.174713,392.978058 
	C350.291687,348.313782 356.527130,304.371674 368.251434,261.268555 
	C380.552277,216.046051 399.044983,173.736938 428.411621,136.759079 
	C434.593018,128.975571 441.423065,121.707146 448.199463,113.919548 
	C446.708740,113.333092 445.396362,112.719452 444.025970,112.291908 
	C407.748199,100.974152 370.897858,92.276077 333.105286,87.770203 
	C294.004700,83.108368 255.013199,82.529541 216.325821,91.059814 
	C158.434097,103.824493 115.694916,135.615570 91.998886,190.986237 
	C80.891930,216.939926 75.160606,244.208237 72.587402,272.196411 
	C69.880554,301.638245 69.044685,331.194519 73.507828,360.445343 
	C78.523537,393.317627 84.423256,426.093689 91.185173,458.652649 
	C103.974762,520.235291 120.018852,581.001099 139.940704,641.527466 
M1071.536377,495.016449 
	C1092.010986,440.220306 1108.814209,384.382660 1118.509155,326.598694 
	C1124.419678,291.370789 1128.405273,255.964767 1123.957886,220.198929 
	C1122.183838,205.930969 1119.495605,191.759842 1110.464966,179.976807 
	C1097.855835,163.524399 1083.479492,148.702286 1067.490601,135.486511 
	C1014.842834,91.970039 953.332275,72.502457 886.051819,69.064156 
	C858.205383,67.641083 830.425415,69.054245 802.817078,73.093002 
	C793.836914,74.406693 784.909302,76.079826 774.559387,77.824219 
	C777.612732,79.351761 779.258057,80.113472 780.846619,80.979263 
	C794.425293,88.379776 808.505676,95.002632 821.480164,103.344749 
	C894.664856,150.399887 946.056335,215.650131 980.128296,295.148315 
	C988.940857,315.709991 995.191528,336.735229 992.604919,359.523499 
	C990.466064,378.367249 989.286743,397.355896 986.299622,416.059509 
	C980.846497,450.203156 979.807190,484.211151 984.517578,518.539917 
	C988.410339,546.909668 991.638672,575.401001 990.080811,604.177002 
	C988.472412,633.887085 981.111694,661.942749 966.532288,687.985779 
	C962.652283,694.916687 962.730103,695.382324 969.507812,700.495544 
	C1010.393127,635.670288 1044.168945,567.376221 1071.536377,495.016449 
M386.326294,511.917786 
	C384.438873,531.799866 382.050690,551.649597 380.761505,571.570374 
	C377.409088,623.372742 395.177521,666.321045 436.362762,698.567810 
	C455.986145,713.932251 478.660706,722.080200 503.718292,723.094055 
	C505.985992,723.185791 508.113556,723.709473 509.065643,720.320740 
	C517.946533,688.710693 530.264771,658.398438 543.743835,628.503113 
	C553.484497,606.899109 560.608887,584.457092 564.146423,560.911011 
	C568.006653,535.217224 568.783508,509.369110 565.710083,483.701538 
	C562.511475,456.988831 558.420288,430.276855 552.710449,404.001129 
	C547.104980,378.205872 530.217407,365.294434 504.050812,362.760712 
	C489.236603,361.326172 474.811798,363.472931 460.553436,367.035553 
	C435.166473,373.378815 411.478180,383.658417 389.683411,398.235474 
	C386.200134,400.565216 384.487610,403.143005 384.982086,407.645630 
	C385.853546,415.580780 386.373688,423.591187 386.419434,431.573639 
	C386.571106,458.044312 386.445862,484.516602 386.326294,511.917786 
M890.455933,566.020630 
	C907.344055,597.598755 924.232178,629.176941 941.338562,661.163208 
	C949.244812,644.368713 953.364502,626.895447 955.052612,608.733154 
	C957.666077,580.615601 953.178711,552.921753 950.629089,525.075439 
	C948.689209,503.888763 946.383057,482.514008 947.264954,461.348969 
	C948.279907,436.988342 952.688721,412.773895 955.489563,388.480530 
	C956.608704,378.774139 957.370239,369.026489 958.332947,358.893005 
	C931.234375,356.012421 905.017761,354.166168 879.304932,362.303101 
	C855.824097,369.733704 843.182190,386.911133 841.968323,411.687927 
	C841.094299,429.530548 843.918152,446.868683 848.544739,463.987427 
	C858.147278,499.517487 873.503174,532.696472 890.455933,566.020630 
M572.838135,821.315491 
	C574.567383,819.073364 576.219604,816.766357 578.041077,814.601807 
	C582.548706,809.244995 583.758728,803.001099 582.760864,796.319458 
	C581.474182,787.703857 578.166565,779.752686 571.739380,773.845398 
	C559.909119,762.971985 549.099915,760.849670 538.364685,773.816956 
	C530.610107,783.183838 522.534180,792.305237 515.164062,801.965332 
	C502.666321,818.346252 486.517670,829.190186 466.876251,834.782532 
	C454.732574,838.240112 442.380463,840.962952 430.133820,844.062561 
	C420.846924,846.412964 411.578735,848.837280 402.302246,851.228760 
	C402.322449,851.741516 402.342682,852.254211 402.362885,852.766968 
	C405.712769,854.477661 408.970184,856.408569 412.428802,857.860229 
	C425.923431,863.524353 440.196838,865.879395 454.643219,867.305786 
	C501.506683,871.932983 541.519836,858.736755 572.838135,821.315491 
M930.184326,796.912292 
	C930.119080,800.576294 930.240112,804.256042 929.931091,807.899353 
	C929.672791,810.944946 930.928406,812.717834 933.685059,813.393311 
	C940.283997,815.010010 946.846863,817.047974 953.553345,817.899475 
	C972.163635,820.262329 990.776306,819.143860 1009.361755,817.013489 
	C1042.211426,813.248108 1073.318970,804.474182 1100.872559,785.445740 
	C1107.498779,780.869690 1113.889771,775.953186 1120.388916,771.193298 
	C1120.167969,770.804382 1119.946899,770.415466 1119.725830,770.026550 
	C1118.491699,770.185486 1117.243774,770.274597 1116.025391,770.513733 
	C1087.201538,776.171387 1058.201172,780.188232 1028.733154,778.894165 
	C1010.144897,778.077942 991.523499,775.835693 975.569702,765.641479 
	C967.960144,760.779053 961.945496,761.162354 954.096985,763.547852 
	C940.947021,767.544678 933.591370,775.855164 931.259949,789.080200 
	C930.855591,791.374512 930.593079,793.693726 930.184326,796.912292 
z"/>
<path fill="#336791" opacity="1.000000" stroke="none" 
	d="
M802.085571,131.889252 
	C874.185913,178.468948 922.650879,243.310776 954.332581,323.341400 
	C949.258667,323.032196 945.551697,322.823975 941.847168,322.577667 
	C917.442017,320.955048 893.276733,321.751221 869.635193,328.996155 
	C834.045837,339.902496 811.299805,368.112549 807.844299,405.064026 
	C804.952515,435.987518 811.883484,465.321381 821.539246,494.196930 
	C836.377380,538.570557 857.994141,579.822632 880.458374,620.680176 
	C888.787720,635.829407 896.736572,651.205933 904.326355,666.739075 
	C913.832397,686.193970 926.333130,703.570068 939.868652,720.306641 
	C942.154846,723.133545 944.308105,726.067810 946.869751,729.404358 
	C945.057556,730.085449 943.766602,730.638794 942.434204,731.061279 
	C915.873657,739.484314 901.111450,757.977356 897.030701,785.113159 
	C895.724854,793.796814 896.014099,802.707886 895.194458,811.479431 
	C893.119019,833.689941 891.114319,855.913330 888.555664,878.070801 
	C884.946533,909.324951 881.348206,940.594421 876.854553,971.728760 
	C871.770508,1006.953979 866.632874,1042.220825 859.748718,1077.120483 
	C854.746094,1102.481323 843.017151,1125.174072 820.843994,1140.191284 
	C810.623474,1147.113159 799.205444,1152.635986 787.701172,1157.210815 
	C768.303650,1164.924561 747.947327,1169.494019 727.053955,1170.825928 
	C685.718628,1173.460693 657.155273,1154.924194 638.872803,1118.215088 
	C628.905701,1098.202271 625.146240,1077.000610 623.066589,1055.229492 
	C615.557312,976.619080 616.225037,897.795471 617.320007,818.977600 
	C617.512085,805.145569 618.801575,791.383057 613.849670,778.034485 
	C604.178040,751.963318 586.666016,734.954346 558.519592,730.588928 
	C553.361572,729.788940 547.973145,730.474792 541.840393,730.474792 
	C544.763245,721.549561 547.277771,712.330261 550.772095,703.498596 
	C560.129700,679.848694 569.727478,656.289551 579.556274,632.831116 
	C598.210205,588.309326 604.215393,541.897827 601.328552,493.990417 
	C599.360229,461.324860 594.616272,429.086578 586.996582,397.305511 
	C576.786987,354.722595 545.115540,329.291412 501.339142,327.885925 
	C465.281433,326.728271 432.081055,337.338074 399.989960,352.489807 
	C395.651459,354.538208 391.421326,356.816071 386.170898,359.479889 
	C387.190186,350.101562 387.912231,341.453949 389.100311,332.870789 
	C394.459808,294.152313 403.434906,256.369904 418.996796,220.364746 
	C435.154510,182.981064 457.111694,149.785233 489.496735,124.337357 
	C519.061157,101.105927 552.846130,87.828682 590.070618,83.945908 
	C665.928345,76.033417 736.688721,91.475105 802.085571,131.889252 
z"/>
<path fill="#336791" opacity="1.000000" stroke="none" 
	d="
M139.827728,641.147949 
	C120.018852,581.001099 103.974762,520.235291 91.185173,458.652649 
	C84.423256,426.093689 78.523537,393.317627 73.507828,360.445343 
	C69.044685,331.194519 69.880554,301.638245 72.587402,272.196411 
	C75.160606,244.208237 80.891930,216.939926 91.998886,190.986237 
	C115.694916,135.615570 158.434097,103.824493 216.325821,91.059814 
	C255.013199,82.529541 294.004700,83.108368 333.105286,87.770203 
	C370.897858,92.276077 407.748199,100.974152 444.025970,112.291908 
	C445.396362,112.719452 446.708740,113.333092 448.199463,113.919548 
	C441.423065,121.707146 434.593018,128.975571 428.411621,136.759079 
	C399.044983,173.736938 380.552277,216.046051 368.251434,261.268555 
	C356.527130,304.371674 350.291687,348.313782 350.174713,392.978058 
	C350.124176,412.279358 351.777740,431.581635 352.505981,450.889221 
	C353.732758,483.412140 352.907867,515.915588 348.256592,548.122375 
	C342.105316,590.715088 346.430634,631.412170 367.022614,669.731689 
	C377.219940,688.707886 390.460815,705.273804 407.029846,719.628845 
	C398.007324,729.519531 388.884247,739.191101 380.128052,749.184204 
	C358.389984,773.992859 336.985382,799.095703 315.080505,823.754944 
	C308.491516,831.172607 301.263977,838.280945 293.328827,844.187256 
	C279.934692,854.156860 265.552582,854.069092 251.326569,845.224976 
	C235.388840,835.316833 223.906052,821.068115 213.536850,805.863525 
	C191.269211,773.211975 175.257614,737.374878 161.103775,700.687256 
	C153.567673,681.153137 146.964798,661.259094 139.827728,641.147949 
z"/>
<path fill="#346791" opacity="1.000000" stroke="none" 
	d="
M1071.369141,495.368347 
	C1044.168945,567.376221 1010.393127,635.670288 969.507812,700.495544 
	C962.730103,695.382324 962.652283,694.916687 966.532288,687.985779 
	C981.111694,661.942749 988.472412,633.887085 990.080811,604.177002 
	C991.638672,575.401001 988.410339,546.909668 984.517578,518.539917 
	C979.807190,484.211151 980.846497,450.203156 986.299622,416.059509 
	C989.286743,397.355896 990.466064,378.367249 992.604919,359.523499 
	C995.191528,336.735229 988.940857,315.709991 980.128296,295.148315 
	C946.056335,215.650131 894.664856,150.399887 821.480164,103.344749 
	C808.505676,95.002632 794.425293,88.379776 780.846619,80.979263 
	C779.258057,80.113472 777.612732,79.351761 774.559387,77.824219 
	C784.909302,76.079826 793.836914,74.406693 802.817078,73.093002 
	C830.425415,69.054245 858.205383,67.641083 886.051819,69.064156 
	C953.332275,72.502457 1014.842834,91.970039 1067.490601,135.486511 
	C1083.479492,148.702286 1097.855835,163.524399 1110.464966,179.976807 
	C1119.495605,191.759842 1122.183838,205.930969 1123.957886,220.198929 
	C1128.405273,255.964767 1124.419678,291.370789 1118.509155,326.598694 
	C1108.814209,384.382660 1092.010986,440.220306 1071.369141,495.368347 
z"/>
<path fill="#346791" opacity="1.000000" stroke="none" 
	d="
M386.376556,511.453003 
	C386.445862,484.516602 386.571106,458.044312 386.419434,431.573639 
	C386.373688,423.591187 385.853546,415.580780 384.982086,407.645630 
	C384.487610,403.143005 386.200134,400.565216 389.683411,398.235474 
	C411.478180,383.658417 435.166473,373.378815 460.553436,367.035553 
	C474.811798,363.472931 489.236603,361.326172 504.050812,362.760712 
	C530.217407,365.294434 547.104980,378.205872 552.710449,404.001129 
	C558.420288,430.276855 562.511475,456.988831 565.710083,483.701538 
	C568.783508,509.369110 568.006653,535.217224 564.146423,560.911011 
	C560.608887,584.457092 553.484497,606.899109 543.743835,628.503113 
	C530.264771,658.398438 517.946533,688.710693 509.065643,720.320740 
	C508.113556,723.709473 505.985992,723.185791 503.718292,723.094055 
	C478.660706,722.080200 455.986145,713.932251 436.362762,698.567810 
	C395.177521,666.321045 377.409088,623.372742 380.761505,571.570374 
	C382.050690,551.649597 384.438873,531.799866 386.376556,511.453003 
M482.954712,411.544495 
	C499.062073,427.172729 520.172180,427.086334 534.029846,411.335510 
	C540.830017,403.606323 539.945679,396.001373 531.483765,390.206085 
	C524.147156,385.181458 515.761292,382.581299 507.103943,382.252899 
	C499.243286,381.954742 491.080200,382.440552 483.481537,384.321838 
	C474.835663,386.462433 472.174622,394.081299 476.209930,402.057312 
	C477.839539,405.278259 480.345154,408.056061 482.954712,411.544495 
z"/>
<path fill="#346892" opacity="1.000000" stroke="none" 
	d="
M890.281433,565.690430 
	C873.503174,532.696472 858.147278,499.517487 848.544739,463.987427 
	C843.918152,446.868683 841.094299,429.530548 841.968323,411.687927 
	C843.182190,386.911133 855.824097,369.733704 879.304932,362.303101 
	C905.017761,354.166168 931.234375,356.012421 958.332947,358.893005 
	C957.370239,369.026489 956.608704,378.774139 955.489563,388.480530 
	C952.688721,412.773895 948.279907,436.988342 947.264954,461.348969 
	C946.383057,482.514008 948.689209,503.888763 950.629089,525.075439 
	C953.178711,552.921753 957.666077,580.615601 955.052612,608.733154 
	C953.364502,626.895447 949.244812,644.368713 941.338562,661.163208 
	C924.232178,629.176941 907.344055,597.598755 890.281433,565.690430 
M882.899475,376.281006 
	C879.087830,378.274353 874.979492,379.858795 871.534973,382.358093 
	C866.530884,385.989105 865.880249,390.926727 869.624512,395.836792 
	C876.794250,405.238953 886.437317,410.367004 898.265564,408.517303 
	C911.348389,406.471344 920.557556,398.677734 925.370056,386.151398 
	C926.751038,382.556763 925.401794,379.391479 922.367615,377.438110 
	C919.914612,375.858917 917.039673,374.658203 914.188477,374.024323 
	C903.856201,371.727325 893.687805,373.123810 882.899475,376.281006 
z"/>
<path fill="#346892" opacity="1.000000" stroke="none" 
	d="
M572.605103,821.584351 
	C541.519836,858.736755 501.506683,871.932983 454.643219,867.305786 
	C440.196838,865.879395 425.923431,863.524353 412.428802,857.860229 
	C408.970184,856.408569 405.712769,854.477661 402.362885,852.766968 
	C402.342682,852.254211 402.322449,851.741516 402.302246,851.228760 
	C411.578735,848.837280 420.846924,846.412964 430.133820,844.062561 
	C442.380463,840.962952 454.732574,838.240112 466.876251,834.782532 
	C486.517670,829.190186 502.666321,818.346252 515.164062,801.965332 
	C522.534180,792.305237 530.610107,783.183838 538.364685,773.816956 
	C549.099915,760.849670 559.909119,762.971985 571.739380,773.845398 
	C578.166565,779.752686 581.474182,787.703857 582.760864,796.319458 
	C583.758728,803.001099 582.548706,809.244995 578.041077,814.601807 
	C576.219604,816.766357 574.567383,819.073364 572.605103,821.584351 
z"/>
<path fill="#346892" opacity="1.000000" stroke="none" 
	d="
M930.224731,796.456909 
	C930.593079,793.693726 930.855591,791.374512 931.259949,789.080200 
	C933.591370,775.855164 940.947021,767.544678 954.096985,763.547852 
	C961.945496,761.162354 967.960144,760.779053 975.569702,765.641479 
	C991.523499,775.835693 1010.144897,778.077942 1028.733154,778.894165 
	C1058.201172,780.188232 1087.201538,776.171387 1116.025391,770.513733 
	C1117.243774,770.274597 1118.491699,770.185486 1119.725830,770.026550 
	C1119.946899,770.415466 1120.167969,770.804382 1120.388916,771.193298 
	C1113.889771,775.953186 1107.498779,780.869690 1100.872559,785.445740 
	C1073.318970,804.474182 1042.211426,813.248108 1009.361755,817.013489 
	C990.776306,819.143860 972.163635,820.262329 953.553345,817.899475 
	C946.846863,817.047974 940.283997,815.010010 933.685059,813.393311 
	C930.928406,812.717834 929.672791,810.944946 929.931091,807.899353 
	C930.240112,804.256042 930.119080,800.576294 930.224731,796.456909 
z"/>
<path fill="#FDFEFE" opacity="1.000000" stroke="none" 
	d="
M482.703430,411.290009 
	C480.345154,408.056061 477.839539,405.278259 476.209930,402.057312 
	C472.174622,394.081299 474.835663,386.462433 483.481537,384.321838 
	C491.080200,382.440552 499.243286,381.954742 507.103943,382.252899 
	C515.761292,382.581299 524.147156,385.181458 531.483765,390.206085 
	C539.945679,396.001373 540.830017,403.606323 534.029846,411.335510 
	C520.172180,427.086334 499.062073,427.172729 482.703430,411.290009 
z"/>
<path fill="#FDFDFE" opacity="1.000000" stroke="none" 
	d="
M883.278931,376.164673 
	C893.687805,373.123810 903.856201,371.727325 914.188477,374.024323 
	C917.039673,374.658203 919.914612,375.858917 922.367615,377.438110 
	C925.401794,379.391479 926.751038,382.556763 925.370056,386.151398 
	C920.557556,398.677734 911.348389,406.471344 898.265564,408.517303 
	C886.437317,410.367004 876.794250,405.238953 869.624512,395.836792 
	C865.880249,390.926727 866.530884,385.989105 871.534973,382.358093 
	C874.979492,379.858795 879.087830,378.274353 883.278931,376.164673 
z"/>
</svg>